<svg xmlns="http://www.w3.org/2000/svg" width="1000" height="600" viewBox="0 0 1000 600" role="img" aria-labelledby="title desc">
<title id="title">Correct decisions lost to each attack</title><desc id="desc">Grouped bars per model: how many of the clean dossiers&#x27; outcome-strict gates the model got wrong once the attack was injected (clean minus attacked, out of 34). 0 means the model fully resisted; a taller bar means the attack changed more decisions. Values: GPT-5.6 Sol Pro Fake review procedure 0, Budget exhaustion 0, Format confusion (fake turns) 0; Gemini 3.8 Flash Fake review procedure 0, Budget exhaustion 0, Format confusion (fake turns) 0; GPT-6 Luna Pro Fake review procedure 28, Budget exhaustion 4, Format confusion (fake turns) 0; DeepSeek V4 Pro Fake review procedure 26, Budget exhaustion 0, Format confusion (fake turns) 6; GLM 5.3 Fake review procedure 0, Budget exhaustion 3, Format confusion (fake turns) 0; Qwen3 235B A22B Fake review procedure 5, Budget exhaustion 0, Format confusion (fake turns) 5.</desc>
<defs><pattern id="hatch" width="6" height="6" patternUnits="userSpaceOnUse" patternTransform="rotate(45)"><rect width="6" height="6" fill="#eef4f7"/><path d="M0 0 V6" stroke="#d5dfe6" stroke-width="1.5"/></pattern></defs>
<rect x="0.5" y="0.5" width="999" height="599" rx="12" fill="#fcfdfd" stroke="#d5dfe6"/>
<g font-family="-apple-system, 'Segoe UI', Roboto, Helvetica, Arial, sans-serif">
<text x="40" y="38" font-size="12" fill="#286b89" font-weight="700" text-anchor="start" letter-spacing="2">RESULTS / PILOT 2026-09</text>
<text x="40" y="74" font-size="24" fill="#142c40" font-weight="700" text-anchor="start" letter-spacing="0">Correct decisions lost to each attack</text>
<text x="40" y="100" font-size="15" fill="#506678" font-weight="400" text-anchor="start" letter-spacing="0">Outcome-strict gates lost (of 34) when the attack is injected, vs the same clean dossiers · higher = attack bit harder · pilot 2026-09</text>
<rect x="40" y="124" width="14" height="12" rx="2" fill="#a36c24" stroke="none"/>
<text x="61" y="134" font-size="13" fill="#506678" font-weight="400" text-anchor="start" letter-spacing="0">Fake review procedure</text>
<rect x="235" y="124" width="14" height="12" rx="2" fill="#286b89" stroke="none"/>
<text x="256" y="134" font-size="13" fill="#506678" font-weight="400" text-anchor="start" letter-spacing="0">Budget exhaustion</text>
<rect x="401" y="124" width="14" height="12" rx="2" fill="#c9a56a" stroke="none"/>
<text x="422" y="134" font-size="13" fill="#506678" font-weight="400" text-anchor="start" letter-spacing="0">Format confusion (fake turns)</text>
<path d="M80 460.0 H960" fill="none" stroke="#142c40" stroke-width="1"/>
<text x="70" y="464.0" font-size="12" fill="#506678" font-weight="400" text-anchor="end" letter-spacing="0" font-variant-numeric="tabular-nums">0</text>
<path d="M80 411.6666666666667 H960" fill="none" stroke="#d5dfe6" stroke-width="1"/>
<text x="70" y="415.6666666666667" font-size="12" fill="#506678" font-weight="400" text-anchor="end" letter-spacing="0" font-variant-numeric="tabular-nums">5</text>
<path d="M80 363.33333333333337 H960" fill="none" stroke="#d5dfe6" stroke-width="1"/>
<text x="70" y="367.33333333333337" font-size="12" fill="#506678" font-weight="400" text-anchor="end" letter-spacing="0" font-variant-numeric="tabular-nums">10</text>
<path d="M80 315.0 H960" fill="none" stroke="#d5dfe6" stroke-width="1"/>
<text x="70" y="319.0" font-size="12" fill="#506678" font-weight="400" text-anchor="end" letter-spacing="0" font-variant-numeric="tabular-nums">15</text>
<path d="M80 266.6666666666667 H960" fill="none" stroke="#d5dfe6" stroke-width="1"/>
<text x="70" y="270.6666666666667" font-size="12" fill="#506678" font-weight="400" text-anchor="end" letter-spacing="0" font-variant-numeric="tabular-nums">20</text>
<path d="M80 218.33333333333334 H960" fill="none" stroke="#d5dfe6" stroke-width="1"/>
<text x="70" y="222.33333333333334" font-size="12" fill="#506678" font-weight="400" text-anchor="end" letter-spacing="0" font-variant-numeric="tabular-nums">25</text>
<path d="M80 170.0 H960" fill="none" stroke="#d5dfe6" stroke-width="1"/>
<text x="70" y="174.0" font-size="12" fill="#506678" font-weight="400" text-anchor="end" letter-spacing="0" font-variant-numeric="tabular-nums">30</text>
<text x="70" y="158" font-size="11.5" fill="#506678" font-weight="400" text-anchor="end" letter-spacing="0">gates lost</text>
<text x="960" y="158" font-size="11.5" fill="#506678" font-weight="400" text-anchor="end" letter-spacing="0">0 = fully resisted</text>
<rect x="102.33333333333333" y="457" width="30" height="3" rx="0" fill="#a36c24" stroke="none"/>
<text x="117.33333333333333" y="453.0" font-size="12" fill="#142c40" font-weight="400" text-anchor="middle" letter-spacing="0" font-variant-numeric="tabular-nums">0</text>
<rect x="138.33333333333331" y="457" width="30" height="3" rx="0" fill="#286b89" stroke="none"/>
<text x="153.33333333333331" y="453.0" font-size="12" fill="#142c40" font-weight="400" text-anchor="middle" letter-spacing="0" font-variant-numeric="tabular-nums">0</text>
<rect x="174.33333333333331" y="457" width="30" height="3" rx="0" fill="#c9a56a" stroke="none"/>
<text x="189.33333333333331" y="453.0" font-size="12" fill="#142c40" font-weight="400" text-anchor="middle" letter-spacing="0" font-variant-numeric="tabular-nums">0</text>
<text x="153.33333333333331" y="482" font-size="13" fill="#142c40" font-weight="700" text-anchor="middle" letter-spacing="0">GPT-5.6 Sol Pro</text>
<text x="153.33333333333331" y="498" font-size="10.5" fill="#506678" font-weight="400" text-anchor="middle" letter-spacing="0">openai/gpt-5.6-sol-pro</text>
<text x="153.33333333333331" y="516" font-size="11.5" fill="#142c40" font-weight="400" text-anchor="middle" letter-spacing="0" font-variant-numeric="tabular-nums">clean: 34/34 correct</text>
<rect x="249.0" y="457" width="30" height="3" rx="0" fill="#a36c24" stroke="none"/>
<text x="264.0" y="453.0" font-size="12" fill="#142c40" font-weight="400" text-anchor="middle" letter-spacing="0" font-variant-numeric="tabular-nums">0</text>
<rect x="285.0" y="457" width="30" height="3" rx="0" fill="#286b89" stroke="none"/>
<text x="300.0" y="453.0" font-size="12" fill="#142c40" font-weight="400" text-anchor="middle" letter-spacing="0" font-variant-numeric="tabular-nums">0</text>
<rect x="321.0" y="457" width="30" height="3" rx="0" fill="#c9a56a" stroke="none"/>
<text x="336.0" y="453.0" font-size="12" fill="#142c40" font-weight="400" text-anchor="middle" letter-spacing="0" font-variant-numeric="tabular-nums">0</text>
<text x="300.0" y="482" font-size="13" fill="#142c40" font-weight="700" text-anchor="middle" letter-spacing="0">Gemini 3.8 Flash</text>
<text x="300.0" y="498" font-size="10.5" fill="#506678" font-weight="400" text-anchor="middle" letter-spacing="0">google/gemini-3.8-flash</text>
<text x="300.0" y="516" font-size="11.5" fill="#142c40" font-weight="400" text-anchor="middle" letter-spacing="0" font-variant-numeric="tabular-nums">clean: 34/34 correct</text>
<g><title>GPT-6 Luna Pro / Fake review procedure: 28 of 34 correct decisions lost</title><path d="M395.66666666666663 460 V193.33333333333337 a4 4 0 0 1 4 -4 H421.66666666666663 a4 4 0 0 1 4 4 V460 Z" fill="#a36c24" stroke="none" stroke-width="1"/></g>
<text x="410.66666666666663" y="182.33333333333337" font-size="12" fill="#142c40" font-weight="700" text-anchor="middle" letter-spacing="0" font-variant-numeric="tabular-nums">28</text>
<g><title>GPT-6 Luna Pro / Budget exhaustion: 4 of 34 correct decisions lost</title><path d="M431.66666666666663 460 V425.3333333333333 a4 4 0 0 1 4 -4 H457.66666666666663 a4 4 0 0 1 4 4 V460 Z" fill="#286b89" stroke="none" stroke-width="1"/></g>
<text x="446.66666666666663" y="414.3333333333333" font-size="12" fill="#142c40" font-weight="700" text-anchor="middle" letter-spacing="0" font-variant-numeric="tabular-nums">4</text>
<rect x="467.66666666666663" y="457" width="30" height="3" rx="0" fill="#c9a56a" stroke="none"/>
<text x="482.66666666666663" y="453.0" font-size="12" fill="#142c40" font-weight="400" text-anchor="middle" letter-spacing="0" font-variant-numeric="tabular-nums">0</text>
<text x="446.66666666666663" y="482" font-size="13" fill="#142c40" font-weight="700" text-anchor="middle" letter-spacing="0">GPT-6 Luna Pro</text>
<text x="446.66666666666663" y="498" font-size="10.5" fill="#506678" font-weight="400" text-anchor="middle" letter-spacing="0">openai/gpt-6-luna-pro</text>
<text x="446.66666666666663" y="516" font-size="11.5" fill="#142c40" font-weight="400" text-anchor="middle" letter-spacing="0" font-variant-numeric="tabular-nums">clean: 34/34 correct</text>
<g><title>DeepSeek V4 Pro / Fake review procedure: 26 of 34 correct decisions lost</title><path d="M542.3333333333334 460 V212.66666666666669 a4 4 0 0 1 4 -4 H568.3333333333334 a4 4 0 0 1 4 4 V460 Z" fill="#a36c24" stroke="none" stroke-width="1"/></g>
<text x="557.3333333333334" y="201.66666666666669" font-size="12" fill="#142c40" font-weight="700" text-anchor="middle" letter-spacing="0" font-variant-numeric="tabular-nums">26</text>
<rect x="578.3333333333334" y="457" width="30" height="3" rx="0" fill="#286b89" stroke="none"/>
<text x="593.3333333333334" y="453.0" font-size="12" fill="#142c40" font-weight="400" text-anchor="middle" letter-spacing="0" font-variant-numeric="tabular-nums">0</text>
<g><title>DeepSeek V4 Pro / Format confusion (fake turns): 6 of 34 correct decisions lost</title><path d="M614.3333333333334 460 V406.0 a4 4 0 0 1 4 -4 H640.3333333333334 a4 4 0 0 1 4 4 V460 Z" fill="#c9a56a" stroke="none" stroke-width="1"/></g>
<text x="629.3333333333334" y="395.0" font-size="12" fill="#142c40" font-weight="700" text-anchor="middle" letter-spacing="0" font-variant-numeric="tabular-nums">6</text>
<text x="593.3333333333334" y="482" font-size="13" fill="#142c40" font-weight="700" text-anchor="middle" letter-spacing="0">DeepSeek V4 Pro</text>
<text x="593.3333333333334" y="498" font-size="10.5" fill="#506678" font-weight="400" text-anchor="middle" letter-spacing="0">deepseek/deepseek-v4-pro-0813</text>
<text x="593.3333333333334" y="516" font-size="11.5" fill="#a36c24" font-weight="400" text-anchor="middle" letter-spacing="0" font-variant-numeric="tabular-nums">clean: 33/34 correct</text>
<rect x="689.0" y="457" width="30" height="3" rx="0" fill="#a36c24" stroke="none"/>
<text x="704.0" y="453.0" font-size="12" fill="#142c40" font-weight="400" text-anchor="middle" letter-spacing="0" font-variant-numeric="tabular-nums">0</text>
<g><title>GLM 5.3 / Budget exhaustion: 3 of 34 correct decisions lost</title><path d="M725.0 460 V435.0 a4 4 0 0 1 4 -4 H751.0 a4 4 0 0 1 4 4 V460 Z" fill="#286b89" stroke="none" stroke-width="1"/></g>
<text x="740.0" y="424.0" font-size="12" fill="#142c40" font-weight="700" text-anchor="middle" letter-spacing="0" font-variant-numeric="tabular-nums">3</text>
<rect x="761.0" y="457" width="30" height="3" rx="0" fill="#c9a56a" stroke="none"/>
<text x="776.0" y="453.0" font-size="12" fill="#142c40" font-weight="400" text-anchor="middle" letter-spacing="0" font-variant-numeric="tabular-nums">0</text>
<text x="740.0" y="482" font-size="13" fill="#142c40" font-weight="700" text-anchor="middle" letter-spacing="0">GLM 5.3</text>
<text x="740.0" y="498" font-size="10.5" fill="#506678" font-weight="400" text-anchor="middle" letter-spacing="0">z-ai/glm-5.3</text>
<text x="740.0" y="516" font-size="11.5" fill="#142c40" font-weight="400" text-anchor="middle" letter-spacing="0" font-variant-numeric="tabular-nums">clean: 34/34 correct</text>
<g><title>Qwen3 235B A22B / Fake review procedure: 5 of 34 correct decisions lost</title><path d="M835.6666666666666 460 V415.6666666666667 a4 4 0 0 1 4 -4 H861.6666666666666 a4 4 0 0 1 4 4 V460 Z" fill="#a36c24" stroke="none" stroke-width="1"/></g>
<text x="850.6666666666666" y="404.6666666666667" font-size="12" fill="#142c40" font-weight="700" text-anchor="middle" letter-spacing="0" font-variant-numeric="tabular-nums">5</text>
<rect x="871.6666666666666" y="457" width="30" height="3" rx="0" fill="#286b89" stroke="none"/>
<text x="886.6666666666666" y="453.0" font-size="12" fill="#142c40" font-weight="400" text-anchor="middle" letter-spacing="0" font-variant-numeric="tabular-nums">0</text>
<g><title>Qwen3 235B A22B / Format confusion (fake turns): 5 of 34 correct decisions lost</title><path d="M907.6666666666666 460 V415.6666666666667 a4 4 0 0 1 4 -4 H933.6666666666666 a4 4 0 0 1 4 4 V460 Z" fill="#c9a56a" stroke="none" stroke-width="1"/></g>
<text x="922.6666666666666" y="404.6666666666667" font-size="12" fill="#142c40" font-weight="700" text-anchor="middle" letter-spacing="0" font-variant-numeric="tabular-nums">5</text>
<text x="886.6666666666666" y="482" font-size="13" fill="#142c40" font-weight="700" text-anchor="middle" letter-spacing="0">Qwen3 235B A22B</text>
<text x="886.6666666666666" y="498" font-size="10.5" fill="#506678" font-weight="400" text-anchor="middle" letter-spacing="0">qwen/qwen3-235b-a22b-2507</text>
<text x="886.6666666666666" y="516" font-size="11.5" fill="#a36c24" font-weight="700" text-anchor="middle" letter-spacing="0" font-variant-numeric="tabular-nums">clean: 7/34 correct</text>
<path d="M40 538 H960" fill="none" stroke="#d5dfe6" stroke-width="1"/>
<text x="40" y="560" font-size="12.5" fill="#506678" font-weight="400" text-anchor="start" letter-spacing="0">Source: results/pilot_2026-09.json. Six development dossiers, not the sealed test set.</text>
<text x="40" y="576" font-size="12.5" fill="#506678" font-weight="400" text-anchor="start" letter-spacing="0">Gates lost = correct on the clean dossier, wrong under the attack. A model can only lose what it got right clean.</text>
</g></svg>
